<svg width="64" height="64" viewBox="0 0 64 64" fill="none" xmlns="http://www.w3.org/2000/svg">
    <rect x="0.5" y="0.5" width="63" height="63" rx="31.5" fill="#1A73E9" stroke="#1967D3"/>
    <path d="M32 17.875C26.7803 17.8806 21.776 19.9567 18.0851 23.6476C14.3942 27.3385 12.3181 32.3428 12.3125 37.5625V40.1875C12.3125 40.5356 12.4508 40.8694 12.6969 41.1156C12.9431 41.3617 13.2769 41.5 13.625 41.5H50.375C50.7231 41.5 51.0569 41.3617 51.3031 41.1156C51.5492 40.8694 51.6875 40.5356 51.6875 40.1875V37.5625C51.6819 32.3428 49.6058 27.3385 45.9149 23.6476C42.224 19.9567 37.2197 17.8806 32 17.875ZM37.25 38.875C36.9019 38.875 36.5681 38.7367 36.3219 38.4906C36.0758 38.2444 35.9375 37.9106 35.9375 37.5625C35.9375 36.5182 35.5227 35.5167 34.7842 34.7783C34.0458 34.0398 33.0443 33.625 32 33.625C30.9557 33.625 29.9542 34.0398 29.2158 34.7783C28.4773 35.5167 28.0625 36.5182 28.0625 37.5625C28.0625 37.9106 27.9242 38.2444 27.6781 38.4906C27.4319 38.7367 27.0981 38.875 26.75 38.875C26.4019 38.875 26.0681 38.7367 25.8219 38.4906C25.5758 38.2444 25.4375 37.9106 25.4375 37.5625C25.4375 35.822 26.1289 34.1528 27.3596 32.9221C28.5903 31.6914 30.2595 31 32 31C33.7405 31 35.4097 31.6914 36.6404 32.9221C37.8711 34.1528 38.5625 35.822 38.5625 37.5625C38.5625 37.9106 38.4242 38.2444 38.1781 38.4906C37.9319 38.7367 37.5981 38.875 37.25 38.875ZM42.5 38.875C42.1519 38.875 41.8181 38.7367 41.5719 38.4906C41.3258 38.2444 41.1875 37.9106 41.1875 37.5625C41.1875 35.1258 40.2195 32.7889 38.4965 31.066C36.7736 29.343 34.4367 28.375 32 28.375C29.5633 28.375 27.2264 29.343 25.5035 31.066C23.7805 32.7889 22.8125 35.1258 22.8125 37.5625C22.8125 37.9106 22.6742 38.2444 22.4281 38.4906C22.1819 38.7367 21.8481 38.875 21.5 38.875C21.1519 38.875 20.8181 38.7367 20.5719 38.4906C20.3258 38.2444 20.1875 37.9106 20.1875 37.5625C20.1875 34.4296 21.432 31.4251 23.6473 29.2098C25.8626 26.9945 28.8671 25.75 32 25.75C35.1329 25.75 38.1374 26.9945 40.3527 29.2098C42.568 31.4251 43.8125 34.4296 43.8125 37.5625C43.8125 37.9106 43.6742 38.2444 43.4281 38.4906C43.1819 38.7367 42.8481 38.875 42.5 38.875ZM47.75 38.875C47.4019 38.875 47.0681 38.7367 46.8219 38.4906C46.5758 38.2444 46.4375 37.9106 46.4375 37.5625C46.4375 33.7334 44.9164 30.0612 42.2089 27.3536C39.5013 24.6461 35.8291 23.125 32 23.125C28.1709 23.125 24.4987 24.6461 21.7911 27.3536C19.0836 30.0612 17.5625 33.7334 17.5625 37.5625C17.5625 37.9106 17.4242 38.2444 17.1781 38.4906C16.9319 38.7367 16.5981 38.875 16.25 38.875C15.9019 38.875 15.5681 38.7367 15.3219 38.4906C15.0758 38.2444 14.9375 37.9106 14.9375 37.5625C14.9375 33.0372 16.7352 28.6973 19.935 25.4975C23.1348 22.2977 27.4747 20.5 32 20.5C36.5253 20.5 40.8652 22.2977 44.065 25.4975C47.2649 28.6973 49.0625 33.0372 49.0625 37.5625C49.0625 37.9106 48.9242 38.2444 48.6781 38.4906C48.4319 38.7367 48.0981 38.875 47.75 38.875Z" fill="white"/>
</svg>
