<svg width="64" height="64" viewBox="0 0 64 64" xmlns="http://www.w3.org/2000/svg">
  <path d="M32 17C26.0346 17.0065 20.3154 19.3791 16.0972 23.5972C11.8791 27.8154 9.50645 33.5346 9.5 39.5V42.5C9.5 42.8978 9.65804 43.2794 9.93934 43.5607C10.2206 43.842 10.6022 44 11 44H53C53.3978 44 53.7794 43.842 54.0607 43.5607C54.342 43.2794 54.5 42.8978 54.5 42.5V39.5C54.4935 33.5346 52.1209 27.8154 47.9028 23.5972C43.6846 19.3791 37.9654 17.0065 32 17ZM38 41C37.6022 41 37.2206 40.842 36.9393 40.5607C36.658 40.2794 36.5 39.8978 36.5 39.5C36.5 38.3065 36.0259 37.1619 35.182 36.318C34.3381 35.4741 33.1935 35 32 35C30.8065 35 29.6619 35.4741 28.818 36.318C27.9741 37.1619 27.5 38.3065 27.5 39.5C27.5 39.8978 27.342 40.2794 27.0607 40.5607C26.7794 40.842 26.3978 41 26 41C25.6022 41 25.2206 40.842 24.9393 40.5607C24.658 40.2794 24.5 39.8978 24.5 39.5C24.5 37.5109 25.2902 35.6032 26.6967 34.1967C28.1032 32.7902 30.0109 32 32 32C33.9891 32 35.8968 32.7902 37.3033 34.1967C38.7098 35.6032 39.5 37.5109 39.5 39.5C39.5 39.8978 39.342 40.2794 39.0607 40.5607C38.7794 40.842 38.3978 41 38 41ZM44 41C43.6022 41 43.2206 40.842 42.9393 40.5607C42.658 40.2794 42.5 39.8978 42.5 39.5C42.5 36.7152 41.3938 34.0445 39.4246 32.0754C37.4555 30.1062 34.7848 29 32 29C29.2152 29 26.5445 30.1062 24.5754 32.0754C22.6062 34.0445 21.5 36.7152 21.5 39.5C21.5 39.8978 21.342 40.2794 21.0607 40.5607C20.7794 40.842 20.3978 41 20 41C19.6022 41 19.2206 40.842 18.9393 40.5607C18.658 40.2794 18.5 39.8978 18.5 39.5C18.5 35.9196 19.9223 32.4858 22.4541 29.9541C24.9858 27.4223 28.4196 26 32 26C35.5804 26 39.0142 27.4223 41.5459 29.9541C44.0777 32.4858 45.5 35.9196 45.5 39.5C45.5 39.8978 45.342 40.2794 45.0607 40.5607C44.7794 40.842 44.3978 41 44 41ZM50 41C49.6022 41 49.2206 40.842 48.9393 40.5607C48.658 40.2794 48.5 39.8978 48.5 39.5C48.5 35.1239 46.7616 30.9271 43.6673 27.8327C40.5729 24.7384 36.3761 23 32 23C27.6239 23 23.4271 24.7384 20.3327 27.8327C17.2384 30.9271 15.5 35.1239 15.5 39.5C15.5 39.8978 15.342 40.2794 15.0607 40.5607C14.7794 40.842 14.3978 41 14 41C13.6022 41 13.2206 40.842 12.9393 40.5607C12.658 40.2794 12.5 39.8978 12.5 39.5C12.5 34.3283 14.5545 29.3684 18.2114 25.7114C21.8684 22.0545 26.8283 20 32 20C37.1717 20 42.1316 22.0545 45.7886 25.7114C49.4455 29.3684 51.5 34.3283 51.5 39.5C51.5 39.8978 51.342 40.2794 51.0607 40.5607C50.7794 40.842 50.3978 41 50 41Z" fill="black"/>
</svg> 